# xmcd
#
# Track frame offsets: 
#        183
#        15320
#        35208
#        54948
#        74270
#        86930
#        101708
#        117103
#        138098
#        156820
#        173188
#
# Disc length: 2625 seconds
#
# Revision: 4
# Processed by: cddbd v1.5.2PL0 Copyright (c) Steve Scherf et al.
# Submitted via: ExactAudioCopyFreeDBPlugin 1.0
#
DISCID=8c0a3f0b
DTITLE=B.B. King - Guess Who
DYEAR=1972
DGENRE=Blues
TTITLE0=Summer In The City
TTITLE1=Just Can't Please You
TTITLE2=Any Other Way
TTITLE3=You Don't Know Nothin' About Love
TTITLE4=Found What I Need
TTITLE5=Neighborhood Affair
TTITLE6=It Takes A Young Girl
TTITLE7=Better Lovin' Man
TTITLE8=Guess Who
TTITLE9=Shouldn't Have Left Me
TTITLE10=Five Long Years
EXTD=YEAR: 1972
EXTT0=
EXTT1=
EXTT2=
EXTT3=
EXTT4=
EXTT5=
EXTT6=
EXTT7=
EXTT8=
EXTT9=
EXTT10=
PLAYORDER=
